<svg width="106" height="23" viewBox="0 0 106 23" fill="none" xmlns="http://www.w3.org/2000/svg">
<path fill-rule="evenodd" clip-rule="evenodd" d="M95 1.82822C100.523 1.82822 105 6.3026 105 11.822C105 17.3414 100.523 21.8158 95 21.8158C89.4771 21.8158 85 17.3414 85 11.822C85 6.3026 89.4771 1.82822 95 1.82822Z" fill="#E8E8EB"/>
<path opacity="0.5" fill-rule="evenodd" clip-rule="evenodd" d="M90.7996 8.93606C91.541 8.93606 92.142 8.33063 92.142 7.58427C92.142 6.83773 91.541 6.23267 90.7996 6.23267C90.0582 6.23267 89.4572 6.83773 89.4572 7.58427C89.4572 8.33063 90.0582 8.93606 90.7996 8.93606ZM89.6754 17.221H91.9454V9.89539H89.6754V17.221ZM96.9572 11.7323C96.0488 11.7323 95.574 12.3455 95.574 13.3757V17.221H93.3967V9.89539H95.574V10.8821C95.574 10.8821 96.2288 9.6717 97.7839 9.6717C99.3391 9.6717 100.452 10.6204 100.452 12.5826V17.221H98.1932V13.3757C98.1932 12.3208 97.7921 11.7323 96.9572 11.7323Z" fill="black"/>
<path fill-rule="evenodd" clip-rule="evenodd" d="M67 1.82822C72.5229 1.82822 77 6.3026 77 11.822C77 17.3414 72.5229 21.8158 67 21.8158C61.4772 21.8158 57 17.3414 57 11.822C57 6.3026 61.4772 1.82822 67 1.82822Z" fill="#E8E8EB"/>
<path opacity="0.5" fill-rule="evenodd" clip-rule="evenodd" d="M69.2318 9.65831C68.6979 9.09642 67.9563 8.74736 67.1357 8.74736C66.3151 8.74736 65.5735 9.09642 65.0401 9.65831H61.3945V8.10908C61.3945 7.31407 61.7742 6.61151 62.3552 6.18434V8.7242H62.8214V5.92019C62.927 5.8763 63.0368 5.84019 63.1497 5.81302V8.7242H63.6159V5.75164C63.6238 5.75156 63.6315 5.75133 63.6393 5.75111C63.6491 5.75083 63.6588 5.75055 63.6686 5.75055H63.9379V8.7242H64.4041V5.75055H70.6181C71.8738 5.75055 72.8922 6.80656 72.8922 8.10908H72.8919V9.65831H69.2318ZM70.2587 6.73665C70.057 6.73665 69.8937 6.9061 69.8937 7.11498V8.4184C69.8937 8.62728 70.057 8.79673 70.2587 8.79673H71.4878C71.6894 8.79673 71.8527 8.62728 71.8527 8.4184V7.11498C71.8527 6.9061 71.6894 6.73665 71.4878 6.73665H70.2587ZM68.0706 9.65831C68.2744 9.75458 68.4619 9.88099 68.6283 10.0319C69.1022 10.4634 69.4023 11.0955 69.4023 11.7991C69.4023 13.0957 68.3856 14.1501 67.1357 14.1501C65.8861 14.1501 64.8694 13.0957 64.8694 11.7991C64.8694 11.0955 65.1695 10.4634 65.6435 10.0319C65.8095 9.88099 65.9973 9.75458 66.2009 9.65831C66.4862 9.52393 66.8027 9.44821 67.1357 9.44821C67.469 9.44821 67.7855 9.52393 68.0706 9.65831ZM65.4681 11.7991C65.4681 12.7587 66.218 13.5366 67.1432 13.5366C68.0683 13.5366 68.8183 12.7587 68.8183 11.7991C68.8183 10.8397 68.0683 10.0619 67.1432 10.0619C66.218 10.0619 65.4681 10.8397 65.4681 11.7991ZM70.6181 17.7388H63.6686C62.4129 17.7388 61.3945 16.683 61.3945 15.3803V10.0319H64.7382C64.3958 10.5307 64.1939 11.1402 64.1939 11.7991C64.1939 13.4844 65.5111 14.851 67.1357 14.851C68.7605 14.851 70.0779 13.4844 70.0779 11.7991C70.0779 11.1402 69.8757 10.5307 69.5335 10.0319H72.8922V15.3803C72.8922 16.683 71.8741 17.7388 70.6181 17.7388Z" fill="black"/>
<path fill-rule="evenodd" clip-rule="evenodd" d="M39 1.82822C44.5228 1.82822 49 6.3026 49 11.822C49 17.3414 44.5228 21.8158 39 21.8158C33.4772 21.8158 29 17.3414 29 11.822C29 6.3026 33.4772 1.82822 39 1.82822Z" fill="#E8E8EB"/>
<path opacity="0.5" fill-rule="evenodd" clip-rule="evenodd" d="M32.9669 15.2957C34.057 15.94 35.3516 16.3161 36.7423 16.3161C41.3153 16.3161 43.8986 12.7549 43.7431 9.56085C44.2241 9.24081 44.6418 8.84084 44.9719 8.38532C44.5301 8.56598 44.0554 8.68816 43.5573 8.74288C44.0657 8.46219 44.4563 8.01706 44.6402 7.48657C44.1643 7.74686 43.6371 7.93595 43.0762 8.03764C42.6271 7.59627 41.9871 7.32054 41.2784 7.32054C39.6889 7.32054 38.5202 8.68845 38.8791 10.1092C36.8321 10.0143 35.0174 9.11019 33.8029 7.73632C33.1577 8.75698 33.4682 10.0924 34.5651 10.768C34.1612 10.7563 33.7813 10.654 33.4491 10.4841C33.4227 11.5362 34.2401 12.52 35.4247 12.7397C35.0781 12.8264 34.6985 12.8464 34.3127 12.7784C34.6259 13.6805 35.5356 14.3369 36.6133 14.3553C35.5779 15.1037 34.2737 15.4379 32.9669 15.2957Z" fill="black"/>
<path fill-rule="evenodd" clip-rule="evenodd" d="M11 1.82822C16.5229 1.82822 21 6.3026 21 11.822C21 17.3414 16.5229 21.8158 11 21.8158C5.47712 21.8158 0.999966 17.3414 0.999966 11.822C0.999966 6.3026 5.47712 1.82822 11 1.82822Z" fill="#E8E8EB"/>
<path opacity="0.5" fill-rule="evenodd" clip-rule="evenodd" d="M9.49374 17.8016H11.6746V11.7531H13.1962L13.3584 9.72835H11.6746C11.6746 9.72835 11.6746 8.97236 11.6746 8.57502C11.6746 8.09768 11.7614 7.90869 12.1781 7.90869C12.5135 7.90869 13.3584 7.90869 13.3584 7.90869V5.80733C13.3584 5.80733 12.114 5.80733 11.8483 5.80733C10.2254 5.80733 9.49374 6.59863 9.49374 8.11383C9.49374 9.43356 9.49374 9.72835 9.49374 9.72835H8.35953V11.7788H9.49374V17.8016Z" fill="black"/>
</svg>
