<svg width="6" height="9" viewBox="0 0 6 9" fill="none" xmlns="http://www.w3.org/2000/svg">
<path d="M3.22 0.105987C3.584 0.105987 3.92 0.157987 4.228 0.261987C4.536 0.365987 4.8 0.513987 5.02 0.705987C5.244 0.897987 5.418 1.12999 5.542 1.40199C5.666 1.67399 5.728 1.97599 5.728 2.30799C5.728 2.57999 5.692 2.82399 5.62 3.03999C5.552 3.25199 5.452 3.43999 5.32 3.60399C5.192 3.76399 5.036 3.89999 4.852 4.01199C4.668 4.12399 4.462 4.21399 4.234 4.28199C4.794 4.42999 5.214 4.67799 5.494 5.02599C5.778 5.37399 5.92 5.80999 5.92 6.33399C5.92 6.72999 5.844 7.08599 5.692 7.40199C5.544 7.71799 5.34 7.98799 5.08 8.21199C4.82 8.43199 4.516 8.60199 4.168 8.72199C3.824 8.83799 3.454 8.89599 3.058 8.89599C2.602 8.89599 2.212 8.83999 1.888 8.72799C1.564 8.61199 1.29 8.45399 1.066 8.25399C0.842 8.05399 0.658 7.81799 0.514 7.54599C0.37 7.26999 0.248 6.97199 0.148 6.65199L0.604 6.45999C0.688 6.42399 0.772 6.40599 0.856 6.40599C0.936 6.40599 1.006 6.42399 1.066 6.45999C1.13 6.49199 1.178 6.54399 1.21 6.61599C1.218 6.63199 1.226 6.64999 1.234 6.66999C1.242 6.68599 1.25 6.70399 1.258 6.72399C1.314 6.83999 1.382 6.97199 1.462 7.11999C1.542 7.26399 1.65 7.39999 1.786 7.52799C1.922 7.65599 2.09 7.76399 2.29 7.85199C2.494 7.93999 2.746 7.98399 3.046 7.98399C3.346 7.98399 3.608 7.93599 3.832 7.83999C4.06 7.73999 4.248 7.61199 4.396 7.45599C4.548 7.29999 4.662 7.12599 4.738 6.93399C4.814 6.74199 4.852 6.55199 4.852 6.36399C4.852 6.13199 4.82 5.91999 4.756 5.72799C4.696 5.53599 4.584 5.36999 4.42 5.22999C4.26 5.08999 4.036 4.97999 3.748 4.89999C3.464 4.81999 3.098 4.77999 2.65 4.77999V4.00599C3.014 4.00199 3.324 3.96199 3.58 3.88599C3.84 3.80999 4.052 3.70599 4.216 3.57399C4.38 3.44199 4.498 3.28399 4.57 3.09999C4.646 2.91599 4.684 2.71199 4.684 2.48799C4.684 2.23999 4.644 2.02399 4.564 1.83999C4.488 1.65599 4.382 1.50399 4.246 1.38399C4.11 1.26399 3.948 1.17399 3.76 1.11399C3.576 1.05399 3.376 1.02399 3.16 1.02399C2.944 1.02399 2.744 1.05599 2.56 1.11999C2.376 1.18399 2.212 1.27399 2.068 1.38999C1.928 1.50199 1.81 1.63799 1.714 1.79799C1.618 1.95399 1.546 2.12399 1.498 2.30799C1.466 2.42399 1.418 2.50799 1.354 2.55999C1.29 2.61199 1.208 2.63799 1.108 2.63799C1.088 2.63799 1.066 2.63799 1.042 2.63799C1.022 2.63399 0.998 2.62999 0.97 2.62599L0.412 2.52999C0.468 2.13799 0.576 1.79199 0.736 1.49199C0.896 1.18799 1.098 0.933988 1.342 0.729988C1.59 0.525988 1.872 0.371988 2.188 0.267987C2.508 0.159987 2.852 0.105987 3.22 0.105987Z" fill="black"/>
</svg>
