<svg width="35" height="13" viewBox="0 0 35 13" fill="none" xmlns="http://www.w3.org/2000/svg">
<path d="M1.55783 10.048H3.71383V3.209C3.71383 3.00367 3.72083 2.796 3.73483 2.586L1.94283 4.119C1.89616 4.15633 1.84949 4.18433 1.80283 4.203C1.75616 4.217 1.71183 4.224 1.66983 4.224C1.59983 4.224 1.53683 4.21 1.48083 4.182C1.42483 4.14933 1.38283 4.112 1.35483 4.07L0.962828 3.531L3.94483 0.947999H4.95983V10.048H6.93383V11H1.55783V10.048ZM8.32792 10.139C8.32792 10.0317 8.34659 9.93133 8.38392 9.838C8.42592 9.74 8.48192 9.656 8.55192 9.586C8.62659 9.51133 8.71526 9.453 8.81792 9.411C8.92059 9.369 9.03259 9.348 9.15392 9.348C9.29392 9.348 9.41759 9.37367 9.52492 9.425C9.63692 9.47633 9.72792 9.54867 9.79792 9.642C9.87259 9.73067 9.92859 9.83567 9.96592 9.957C10.0033 10.0737 10.0219 10.202 10.0219 10.342C10.0219 10.552 9.99159 10.7713 9.93092 11C9.87026 11.224 9.78392 11.4457 9.67192 11.665C9.55992 11.889 9.41992 12.106 9.25192 12.316C9.08859 12.526 8.90192 12.7197 8.69192 12.897L8.48192 12.694C8.42126 12.638 8.39092 12.5727 8.39092 12.498C8.39092 12.4373 8.42359 12.3743 8.48892 12.309C8.53559 12.2577 8.59392 12.1877 8.66392 12.099C8.73859 12.015 8.81326 11.917 8.88792 11.805C8.96259 11.693 9.03026 11.5693 9.09092 11.434C9.15626 11.2987 9.20292 11.154 9.23092 11H9.13992C9.01859 11 8.90892 10.979 8.81092 10.937C8.71292 10.895 8.62659 10.8367 8.55192 10.762C8.48192 10.6827 8.42592 10.5917 8.38392 10.489C8.34659 10.3817 8.32792 10.265 8.32792 10.139ZM18.3367 5.988C18.3367 6.86533 18.2411 7.626 18.0497 8.27C17.8631 8.90933 17.6064 9.439 17.2797 9.859C16.9531 10.279 16.5657 10.5917 16.1177 10.797C15.6744 11.0023 15.1984 11.105 14.6897 11.105C14.1764 11.105 13.6981 11.0023 13.2547 10.797C12.8161 10.5917 12.4334 10.279 12.1067 9.859C11.7801 9.439 11.5234 8.90933 11.3367 8.27C11.1501 7.626 11.0567 6.86533 11.0567 5.988C11.0567 5.11067 11.1501 4.35 11.3367 3.706C11.5234 3.062 11.7801 2.53 12.1067 2.11C12.4334 1.68533 12.8161 1.37033 13.2547 1.165C13.6981 0.959666 14.1764 0.856999 14.6897 0.856999C15.1984 0.856999 15.6744 0.959666 16.1177 1.165C16.5657 1.37033 16.9531 1.68533 17.2797 2.11C17.6064 2.53 17.8631 3.062 18.0497 3.706C18.2411 4.35 18.3367 5.11067 18.3367 5.988ZM17.0417 5.988C17.0417 5.22267 16.9764 4.581 16.8457 4.063C16.7197 3.54033 16.5471 3.12033 16.3277 2.803C16.1131 2.48567 15.8634 2.25933 15.5787 2.124C15.2941 1.984 14.9977 1.914 14.6897 1.914C14.3817 1.914 14.0854 1.984 13.8007 2.124C13.5161 2.25933 13.2664 2.48567 13.0517 2.803C12.8371 3.12033 12.6644 3.54033 12.5337 4.063C12.4077 4.581 12.3447 5.22267 12.3447 5.988C12.3447 6.75333 12.4077 7.395 12.5337 7.913C12.6644 8.431 12.8371 8.84867 13.0517 9.166C13.2664 9.48333 13.5161 9.712 13.8007 9.852C14.0854 9.98733 14.3817 10.055 14.6897 10.055C14.9977 10.055 15.2941 9.98733 15.5787 9.852C15.8634 9.712 16.1131 9.48333 16.3277 9.166C16.5471 8.84867 16.7197 8.431 16.8457 7.913C16.9764 7.395 17.0417 6.75333 17.0417 5.988ZM22.6008 6.884C22.2228 6.884 21.8635 6.821 21.5228 6.695C21.1868 6.569 20.8905 6.38467 20.6338 6.142C20.3771 5.89467 20.1718 5.59367 20.0178 5.239C19.8685 4.87967 19.7938 4.469 19.7938 4.007C19.7938 3.56833 19.8755 3.15767 20.0388 2.775C20.2021 2.39233 20.4308 2.05867 20.7248 1.774C21.0188 1.48933 21.3688 1.26533 21.7748 1.102C22.1808 0.938666 22.6265 0.856999 23.1118 0.856999C23.5925 0.856999 24.0288 0.936333 24.4208 1.095C24.8128 1.25367 25.1488 1.47533 25.4288 1.76C25.7088 2.04467 25.9235 2.38533 26.0728 2.782C26.2268 3.17867 26.3038 3.61733 26.3038 4.098C26.3038 4.38733 26.2758 4.66267 26.2198 4.924C26.1685 5.18067 26.0915 5.43267 25.9888 5.68C25.8861 5.92733 25.7625 6.17467 25.6178 6.422C25.4778 6.66467 25.3168 6.91667 25.1348 7.178L22.6918 10.706C22.6311 10.7947 22.5448 10.867 22.4328 10.923C22.3208 10.9743 22.1925 11 22.0478 11H20.8998L23.9518 7.003C24.0545 6.86767 24.1501 6.73933 24.2388 6.618C24.3275 6.49667 24.4115 6.37533 24.4908 6.254C24.2341 6.45933 23.9448 6.61567 23.6228 6.723C23.3008 6.83033 22.9601 6.884 22.6008 6.884ZM25.1068 3.951C25.1068 3.63833 25.0555 3.356 24.9528 3.104C24.8548 2.84733 24.7171 2.63033 24.5398 2.453C24.3625 2.27567 24.1501 2.14033 23.9028 2.047C23.6601 1.949 23.3918 1.9 23.0978 1.9C22.7898 1.9 22.5075 1.95133 22.2508 2.054C21.9988 2.152 21.7818 2.28967 21.5998 2.467C21.4225 2.64433 21.2848 2.85667 21.1868 3.104C21.0888 3.35133 21.0398 3.622 21.0398 3.916C21.0398 4.23333 21.0841 4.518 21.1728 4.77C21.2661 5.01733 21.3968 5.22733 21.5648 5.4C21.7375 5.57267 21.9451 5.70333 22.1878 5.792C22.4351 5.88067 22.7105 5.925 23.0138 5.925C23.3498 5.925 23.6461 5.87133 23.9028 5.764C24.1641 5.652 24.3835 5.505 24.5608 5.323C24.7381 5.141 24.8735 4.931 24.9668 4.693C25.0601 4.455 25.1068 4.20767 25.1068 3.951ZM31.2189 0.856999C31.6436 0.856999 32.0356 0.917666 32.3949 1.039C32.7542 1.16033 33.0622 1.333 33.3189 1.557C33.5802 1.781 33.7832 2.05167 33.9279 2.369C34.0726 2.68633 34.1449 3.03867 34.1449 3.426C34.1449 3.74333 34.1029 4.028 34.0189 4.28C33.9396 4.52733 33.8229 4.74667 33.6689 4.938C33.5196 5.12467 33.3376 5.28333 33.1229 5.414C32.9082 5.54467 32.6679 5.64967 32.4019 5.729C33.0552 5.90167 33.5452 6.191 33.8719 6.597C34.2032 7.003 34.3689 7.51167 34.3689 8.123C34.3689 8.585 34.2802 9.00033 34.1029 9.369C33.9302 9.73767 33.6922 10.0527 33.3889 10.314C33.0856 10.5707 32.7309 10.769 32.3249 10.909C31.9236 11.0443 31.4919 11.112 31.0299 11.112C30.4979 11.112 30.0429 11.0467 29.6649 10.916C29.2869 10.7807 28.9672 10.5963 28.7059 10.363C28.4446 10.1297 28.2299 9.85433 28.0619 9.537C27.8939 9.215 27.7516 8.86733 27.6349 8.494L28.1669 8.27C28.2649 8.228 28.3629 8.207 28.4609 8.207C28.5542 8.207 28.6359 8.228 28.7059 8.27C28.7806 8.30733 28.8366 8.368 28.8739 8.452C28.8832 8.47067 28.8926 8.49167 28.9019 8.515C28.9112 8.53367 28.9206 8.55467 28.9299 8.578C28.9952 8.71333 29.0746 8.86733 29.1679 9.04C29.2612 9.208 29.3872 9.36667 29.5459 9.516C29.7046 9.66533 29.9006 9.79133 30.1339 9.894C30.3719 9.99667 30.6659 10.048 31.0159 10.048C31.3659 10.048 31.6716 9.992 31.9329 9.88C32.1989 9.76333 32.4182 9.614 32.5909 9.432C32.7682 9.25 32.9012 9.047 32.9899 8.823C33.0786 8.599 33.1229 8.37733 33.1229 8.158C33.1229 7.88733 33.0856 7.64 33.0109 7.416C32.9409 7.192 32.8102 6.99833 32.6189 6.835C32.4322 6.67167 32.1709 6.54333 31.8349 6.45C31.5036 6.35667 31.0766 6.31 30.5539 6.31V5.407C30.9786 5.40233 31.3402 5.35567 31.6389 5.267C31.9422 5.17833 32.1896 5.057 32.3809 4.903C32.5722 4.749 32.7099 4.56467 32.7939 4.35C32.8826 4.13533 32.9269 3.89733 32.9269 3.636C32.9269 3.34667 32.8802 3.09467 32.7869 2.88C32.6982 2.66533 32.5746 2.488 32.4159 2.348C32.2572 2.208 32.0682 2.103 31.8489 2.033C31.6342 1.963 31.4009 1.928 31.1489 1.928C30.8969 1.928 30.6636 1.96533 30.4489 2.04C30.2342 2.11467 30.0429 2.21967 29.8749 2.355C29.7116 2.48567 29.5739 2.64433 29.4619 2.831C29.3499 3.013 29.2659 3.21133 29.2099 3.426C29.1726 3.56133 29.1166 3.65933 29.0419 3.72C28.9672 3.78067 28.8716 3.811 28.7549 3.811C28.7316 3.811 28.7059 3.811 28.6779 3.811C28.6546 3.80633 28.6266 3.80167 28.5939 3.797L27.9429 3.685C28.0082 3.22767 28.1342 2.824 28.3209 2.474C28.5076 2.11933 28.7432 1.823 29.0279 1.585C29.3172 1.347 29.6462 1.16733 30.0149 1.046C30.3882 0.919999 30.7896 0.856999 31.2189 0.856999Z" fill="#A4A4A4"/>
</svg>
